<?xml version="1.0" standalone="no"?>
<!DOCTYPE svg PUBLIC "-//W3C//DTD SVG 20010904//EN"
 "http://www.w3.org/TR/2001/REC-SVG-20010904/DTD/svg10.dtd">
<svg version="1.0" xmlns="http://www.w3.org/2000/svg"
 width="2504.000000pt" height="2504.000000pt" viewBox="0 0 2504.000000 2504.000000"
 preserveAspectRatio="xMidYMid meet">
<metadata>
Created by potrace 1.14, written by Peter Selinger 2001-2017
</metadata>
<g transform="translate(0.000000,2504.000000) scale(0.100000,-0.100000)"
fill="#000000" stroke="none">
<path d="M12307 25034 c-1 -1 -99 -5 -217 -8 -118 -4 -237 -9 -265 -11 -27 -2
-95 -7 -150 -10 -55 -3 -120 -7 -145 -9 -25 -3 -79 -7 -120 -11 -81 -6 -121
-10 -215 -21 -33 -4 -73 -8 -90 -9 -16 -2 -51 -5 -77 -9 -27 -3 -69 -9 -95
-12 -27 -3 -59 -7 -73 -9 -14 -2 -45 -6 -70 -10 -48 -6 -116 -16 -140 -20 -8
-2 -37 -6 -65 -9 -27 -4 -57 -9 -65 -11 -8 -2 -33 -6 -55 -10 -22 -3 -65 -10
-95 -15 -30 -6 -68 -13 -85 -15 -16 -3 -75 -14 -130 -25 -55 -10 -114 -21
-131 -24 -62 -11 -432 -96 -574 -132 -79 -20 -151 -38 -160 -40 -313 -75
-1163 -358 -1425 -475 -11 -4 -72 -29 -135 -55 -63 -25 -119 -50 -125 -55 -5
-5 -15 -9 -22 -9 -7 0 -52 -18 -99 -40 -47 -22 -88 -40 -91 -40 -7 0 -159 -73
-408 -195 -319 -158 -588 -304 -893 -486 -41 -24 -81 -48 -90 -54 -275 -164
-899 -591 -1077 -737 -11 -9 -76 -61 -145 -114 -69 -54 -127 -100 -130 -103
-3 -3 -41 -35 -85 -71 -73 -58 -336 -284 -375 -320 -9 -8 -56 -52 -106 -97
-293 -267 -636 -613 -899 -908 -102 -114 -93 -104 -144 -165 -25 -29 -50 -58
-56 -64 -6 -6 -55 -65 -109 -131 -54 -66 -106 -129 -115 -140 -69 -85 -325
-419 -361 -471 -8 -12 -62 -89 -120 -170 -277 -390 -566 -857 -786 -1269 -91
-171 -152 -287 -168 -320 -7 -16 -45 -95 -84 -175 -38 -80 -79 -167 -92 -195
-12 -27 -36 -79 -52 -115 -62 -134 -201 -466 -253 -605 -12 -33 -44 -116 -70
-185 -97 -256 -319 -959 -361 -1142 -5 -21 0 -1 -62 -258 -28 -113 -55 -230
-61 -260 -12 -58 -18 -89 -25 -117 -6 -27 -54 -274 -59 -308 -3 -16 -13 -73
-22 -125 -9 -52 -18 -106 -21 -120 -2 -14 -7 -45 -10 -70 -3 -25 -8 -54 -10
-64 -2 -11 -8 -56 -14 -100 -6 -45 -13 -97 -16 -116 -3 -19 -7 -48 -9 -65 -4
-28 -9 -71 -20 -170 -2 -22 -7 -67 -10 -100 -3 -33 -8 -75 -11 -93 -4 -30 -10
-107 -19 -232 -2 -25 -6 -83 -9 -130 -20 -273 -29 -546 -29 -870 0 -248 8
-548 18 -685 2 -33 7 -105 10 -160 3 -55 8 -116 10 -135 1 -19 6 -74 10 -122
3 -48 8 -98 10 -110 2 -13 6 -57 10 -98 3 -41 8 -88 10 -105 2 -16 9 -70 15
-120 11 -86 47 -342 55 -395 3 -14 7 -43 10 -65 5 -34 46 -264 59 -331 3 -12
7 -37 10 -55 4 -28 31 -156 72 -344 2 -11 6 -31 9 -45 2 -14 23 -99 46 -190
22 -91 42 -172 44 -180 1 -8 9 -35 16 -60 7 -25 14 -52 15 -60 9 -42 131 -452
185 -616 85 -262 251 -717 299 -819 5 -11 21 -49 36 -85 14 -36 32 -78 39 -95
119 -275 170 -386 296 -640 146 -297 215 -429 288 -555 21 -36 41 -72 44 -80
4 -8 18 -33 32 -55 14 -22 28 -47 32 -55 4 -8 52 -89 106 -180 476 -787 1041
-1527 1662 -2178 182 -191 536 -537 649 -635 11 -10 53 -47 91 -82 57 -51 242
-211 330 -284 470 -392 1038 -795 1560 -1106 211 -126 238 -142 285 -168 25
-14 104 -57 175 -97 177 -98 689 -350 915 -450 355 -157 788 -323 1170 -448
266 -87 803 -240 940 -267 8 -2 33 -8 55 -13 22 -6 51 -13 65 -16 14 -3 57
-12 95 -21 105 -23 345 -73 385 -80 19 -3 82 -14 140 -25 58 -11 137 -24 175
-30 39 -6 84 -13 100 -16 38 -7 45 -8 265 -38 102 -13 214 -27 250 -31 36 -3
76 -8 90 -10 14 -2 59 -7 100 -10 41 -3 91 -8 110 -10 19 -3 67 -7 105 -10 87
-6 220 -15 305 -20 114 -8 549 -19 715 -19 167 0 596 12 700 19 33 2 105 7
160 10 55 3 116 8 135 10 19 2 74 6 122 9 47 4 95 9 107 11 11 2 53 6 93 9 40
4 82 8 93 10 11 2 52 7 90 11 39 4 77 8 85 10 23 4 99 14 155 21 28 3 59 7 70
9 80 12 104 16 135 21 19 3 44 8 55 9 152 25 221 37 225 40 3 1 29 6 59 9 29
4 56 8 60 10 3 2 22 7 41 10 34 5 101 19 190 38 25 5 55 11 66 14 12 2 82 18
155 35 74 17 145 33 157 35 13 3 49 12 80 20 32 8 66 17 78 19 35 8 415 114
504 142 47 15 90 27 95 29 6 1 82 26 170 55 88 29 165 54 170 55 22 4 462 167
512 189 29 13 54 24 56 24 8 -1 254 101 452 188 167 73 702 335 840 411 39 21
99 54 135 74 234 128 670 392 802 485 26 18 52 33 57 33 5 0 11 3 13 8 2 4 41
33 88 64 151 101 335 231 405 285 17 13 35 27 40 31 36 26 213 159 225 169 8
6 58 46 110 88 52 42 113 91 135 108 21 18 84 70 140 117 55 47 111 94 124
105 13 11 36 31 51 45 15 14 55 50 90 80 317 277 872 838 1097 1109 12 14 36
42 53 61 18 19 82 96 143 170 61 74 114 137 117 140 13 11 307 393 361 469 14
20 66 92 115 161 177 246 413 612 591 915 93 159 120 208 238 425 57 105 269
530 312 625 17 39 46 102 63 140 81 177 314 745 326 794 2 9 21 63 42 121 73
197 194 576 265 830 38 133 152 585 160 635 3 17 22 107 41 200 20 94 38 184
41 200 3 17 10 53 15 80 12 63 17 94 30 175 6 36 13 76 15 90 2 14 7 43 10 65
3 22 10 65 15 95 5 30 12 80 15 110 3 30 8 62 10 70 2 8 6 42 10 75 3 33 7 71
10 85 2 14 7 52 10 85 3 33 8 74 10 90 6 49 23 231 30 325 2 30 6 89 9 130 33
446 38 1131 11 1565 -9 155 -17 262 -20 295 -2 19 -6 73 -10 120 -3 47 -8 99
-10 115 -2 17 -7 61 -10 98 -4 37 -8 76 -9 85 -2 9 -7 48 -11 86 -4 38 -8 79
-10 90 -2 12 -6 44 -9 71 -4 28 -8 61 -11 75 -2 14 -7 48 -10 75 -3 28 -8 57
-10 65 -2 8 -6 35 -9 60 -3 25 -8 55 -10 66 -2 12 -7 39 -11 60 -11 74 -16 99
-41 234 -13 74 -34 180 -45 235 -21 100 -25 120 -33 163 -3 13 -7 31 -10 40
-3 9 -7 28 -10 42 -2 14 -23 102 -46 195 -23 94 -43 177 -45 185 -1 8 -9 35
-16 60 -7 25 -14 52 -15 60 -24 120 -269 883 -354 1100 -23 58 -42 110 -44
115 -2 6 -7 19 -11 30 -4 11 -26 65 -47 120 -57 144 -160 386 -207 487 -23 48
-41 90 -41 94 0 8 -280 570 -333 669 -80 149 -128 235 -217 390 -148 260 -387
631 -600 935 -74 106 -239 331 -250 340 -3 3 -25 32 -50 65 -44 60 -315 401
-335 421 -5 6 -30 35 -55 64 -25 30 -56 65 -69 79 -20 22 -64 74 -134 155
-223 259 -705 738 -1037 1031 -69 61 -130 115 -136 120 -6 6 -33 29 -60 51
-401 339 -775 621 -1184 891 -102 68 -192 127 -200 133 -22 15 -153 95 -250
154 -47 28 -93 55 -102 61 -88 53 -146 86 -328 187 -358 200 -845 435 -1220
590 -52 21 -104 43 -115 48 -116 52 -896 334 -913 330 -1 0 -60 17 -130 39
-167 53 -564 162 -673 186 -8 2 -44 10 -80 19 -85 20 -264 61 -364 81 -44 9
-89 19 -100 21 -11 3 -31 6 -45 8 -14 2 -65 12 -115 21 -49 10 -101 19 -115
21 -14 3 -36 7 -50 9 -14 3 -42 8 -64 11 -21 3 -48 8 -60 10 -11 2 -40 7 -62
10 -23 2 -52 7 -65 9 -12 3 -59 9 -103 15 -45 6 -92 13 -106 15 -14 2 -47 6
-75 10 -68 8 -123 14 -165 20 -19 3 -66 7 -105 11 -38 3 -81 7 -95 9 -23 3
-100 10 -220 20 -25 2 -94 7 -155 10 -60 4 -132 9 -160 10 -164 11 -890 26
-898 19z"/>
</g>
</svg>
